PathFileType	4	(X/Y/Z)	..\data\2015026\dynamic\2015026_C5_03.trc
DataRate	CameraRate	NumFrames	NumMarkers	Units	OrigDataRate	OrigDataStartFrame	OrigNumFrames
100.000000	100.000000	4	48	mm	100.000000	51	136
Frame#	Time	L_IAS			L_IPS			R_IPS			R_IAS			L_FTC			L_FLE			L_FAX			L_TTC			L_FAL			L_FCC			L_FM1			L_FM2			L_FM5			R_FTC			R_FLE			R_FAX			R_TTC			R_FAL			R_FCC			R_FM1			R_FM2			R_FM5			CV7			TV10			SXS			SJN			L_SIA			L_SRS			L_SAA			L_SAE			L_HLE			L_HME			L_UOA			L_RSP			L_UHE			L_HM2			L_HM5			R_SIA			R_SRS			R_SAA			R_SAE			R_HLE			R_HME			R_UOA			R_RSP			R_UHE			R_HM2			R_HM5			
		X1	Y1	Z1	X2	Y2	Z2	X3	Y3	Z3	X4	Y4	Z4	X5	Y5	Z5	X6	Y6	Z6	X7	Y7	Z7	X8	Y8	Z8	X9	Y9	Z9	X10	Y10	Z10	X11	Y11	Z11	X12	Y12	Z12	X13	Y13	Z13	X14	Y14	Z14	X15	Y15	Z15	X16	Y16	Z16	X17	Y17	Z17	X18	Y18	Z18	X19	Y19	Z19	X20	Y20	Z20	X21	Y21	Z21	X22	Y22	Z22	X23	Y23	Z23	X24	Y24	Z24	X25	Y25	Z25	X26	Y26	Z26	X27	Y27	Z27	X28	Y28	Z28	X29	Y29	Z29	X30	Y30	Z30	X31	Y31	Z31	X32	Y32	Z32	X33	Y33	Z33	X34	Y34	Z34	X35	Y35	Z35	X36	Y36	Z36	X37	Y37	Z37	X38	Y38	Z38	X39	Y39	Z39	X40	Y40	Z40	X41	Y41	Z41	X42	Y42	Z42	X43	Y43	Z43	X44	Y44	Z44	X45	Y45	Z45	X46	Y46	Z46	X47	Y47	Z47	X48	Y48	Z48	

52	0.51	-410.9747009277345	911.664001464844	86.08374786376949	-604.2810058593751	902.1152343750002	122.8584442138671	-607.7746582031251	906.8892211914065	237.916015625	-423.0206604003908	899.0764160156252	311.2522888183594	-464.2650146484376	830.1821899414065	11.74968433380121	-274.5653686523438	456.9110107421876	77.73307037353514	-283.2827148437501	400.7168579101564	73.51917266845702	-221.9937133789063	407.9085083007814	128.4046478271484	-206.4266967773438	69.68605041503908	90.53328704833983	-244.8389129638673	14.41821098327637	124.8693389892578	-62.96061706542972	50.28547286987306	169.15869140625	-58.32183837890628	64.54039764404298	118.8278732299805	-92.38237762451175	39.99807739257813	68.37478637695312	-526.3713989257814	815.2827758789065	357.0107421875	-606.0861816406251	437.1688842773439	290.8514404296875	-661.8012084960939	399.0081787109376	293.1258239746094	-622.8521118164064	354.1590881347657	244.622573852539	-894.3392333984377	141.3249969482422	274.8922119140624	-950.7647705078127	137.2819976806641	231.6992950439453	-812.622009277344	24.02227210998536	183.6561889648437	-806.3323364257815	33.06237792968751	240.0926971435547	-846.8028564453127	30.29895782470704	289.1068420410156	-578.6691284179689	1390.175170898438	190.9901885986328	-646.1502685546876	1151.497436523438	184.6063995361328	-422.0374145507814	1092.591918945313	174.9479675292968	-454.6976013183595	1308.6083984375	177.0622406005859	-648.4043579101564	1186.078125	108.9022140502929	-625.2191772460939	1319.292724609375	104.8556976318359	-584.4403686523439	1330.350463867188	20.87726020812982	-545.9737548828126	1331.158081054688	-1.457565069198675	-611.2624511718751	1028.918212890625	-65.13722229003915	-644.3997192382814	1022.556640625	7.908957004547042	-647.7760009765626	1024.416625976563	-37.15214157104501	-603.8382568359376	781.703796386719	-42.73856353759773	-666.3444213867189	807.221374511719	-83.28258514404307	-620.8754882812501	697.2396850585939	-51.11547088623056	-702.4963989257814	742.2203979492189	-84.76894378662119	-644.6087646484376	1190.197021484375	272.0382385253906	-620.9161376953126	1320.223022460938	239.6461181640625	-565.3092651367189	1334.740356445313	342.6976318359375	-509.6358337402345	1335.067993164063	358.8713073730469	-464.6481933593752	1031.246459960938	432.5642700195313	-504.4202880859377	999.279724121094	367.80419921875	-492.8934326171877	989.902770996094	414.4680175781251	-267.0068664550782	880.9184570312502	369.4781188964844	-322.4684143066407	830.146667480469	394.5827331542969	-204.1990966796876	820.0693969726565	364.5468750000001	-289.212127685547	768.0994262695315	392.3671264648438	
53	0.52	-391.5252380371095	913.4238891601565	85.14415740966794	-585.0178222656251	903.944030761719	122.2739181518554	-588.2975463867189	907.551452636719	237.5911560058593	-403.5540466308595	899.5515136718752	309.9207153320312	-444.2209472656251	833.132263183594	10.64547634124751	-257.6272277832032	457.2025451660157	77.97109222412108	-267.4145202636719	401.4150695800782	73.63417816162108	-206.8827056884766	407.0777587890626	129.5214385986328	-203.0642089843751	68.45578765869142	91.64007568359374	-244.3793487548829	14.87921714782715	125.1616744995117	-60.88858413696293	42.22691726684571	171.7370910644532	-54.69692230224612	56.82690811157228	121.2030944824219	-90.28488922119143	33.99399948120118	69.75405120849609	-505.2980041503908	814.1754150390627	356.6468200683594	-577.7283935546876	434.046112060547	292.6539306640625	-634.1336059570314	397.9750366210939	294.7485961914062	-595.8120727539064	351.1466674804688	247.6985168457031	-878.1101684570315	151.7427062988282	275.7634277343749	-933.7119140625002	152.2942657470703	231.2964172363281	-808.1753540039065	27.05599212646485	184.5669860839843	-801.9508056640627	35.01621627807618	240.4981079101562	-840.9506835937502	35.66067504882813	289.0227661132812	-560.0800170898439	1391.487182617188	189.1072998046875	-627.0487060546876	1152.447875976563	183.5004577636718	-402.7459106445314	1094.178100585938	173.8823699951172	-436.0505981445314	1310.084594726563	175.5727996826172	-629.4002685546876	1187.050048828125	107.3691864013671	-606.5556640625001	1320.177490234375	103.0874557495117	-565.5878906250001	1331.257446289063	19.19278144836419	-527.0340576171876	1332.029052734375	-3.077240228653019	-591.5146484375001	1029.468139648438	-66.24884033203134	-624.4353637695314	1023.188842773438	7.073527812957689	-627.9034423828126	1024.788452148438	-38.13171386718759	-582.8866577148439	782.3085937500002	-43.472454071045	-645.6373901367189	807.4412841796877	-83.91106414794932	-600.0138549804689	697.6886596679689	-51.15335083007821	-681.5931396484376	742.4102783203126	-84.85147094726572	-625.6309204101564	1191.315185546875	270.6705932617188	-602.3022460937501	1321.422119140625	237.8829650878906	-546.7847900390626	1336.328491210938	341.0819396972656	-491.0756835937502	1336.608276367188	357.4586181640625	-449.273162841797	1032.087280273438	431.1463317871094	-489.077606201172	1000.890747070313	366.33349609375	-477.961639404297	991.2335205078127	413.0926818847657	-253.5600891113282	878.960632324219	369.1712341308594	-309.8181457519532	829.1843872070315	394.2830505371094	-191.6796875000001	816.8819580078127	364.4492187500001	-277.6238403320314	766.4944458007814	392.1419677734376	
54	0.53	-372.3615417480469	915.6087646484377	84.09279632568357	-566.0305786132814	906.1278076171877	121.8054809570312	-569.0424804687501	908.4885864257815	237.3427429199219	-384.2382202148439	900.2820434570315	308.471435546875	-424.5207824707032	836.5317993164065	9.445899963378857	-241.8328094482422	457.5153808593751	77.95748901367186	-252.6795501708985	402.1513671875001	73.48670959472655	-192.8860473632813	406.286834716797	130.2453765869141	-200.6184997558594	67.42671203613283	92.4466094970703	-244.5406646728516	15.42244052886963	125.2639617919922	-59.66619110107425	34.93666458129884	173.8062133789063	-52.04239654541018	49.88862609863283	123.0206832885742	-89.09966278076175	28.67175292968751	70.53391265869141	-484.1498107910158	813.258728027344	356.2434997558594	-548.1572875976564	431.0440979003907	294.7044677734375	-604.9907836914064	397.128631591797	296.542724609375	-567.1854248046876	348.4006652832032	251.1259765625	-859.4360351562502	162.324203491211	276.3088989257812	-913.9730224609377	167.1515350341797	230.4704589843749	-800.6774902343752	30.69604301452637	186.1495971679687	-794.8201293945315	37.70896911621094	241.3912200927734	-832.4371337890627	42.05404663085938	289.2290954589843	-541.5337524414064	1393.174194335938	187.3411865234375	-608.0844116210939	1153.798217773438	182.4691772460937	-383.5923461914063	1096.05810546875	172.8746643066406	-417.4761657714845	1311.879028320313	174.1782531738281	-610.5357666015626	1188.427490234375	105.9416046142578	-587.9669189453126	1321.4619140625	101.429443359375	-546.8018798828126	1332.513916015625	17.59309196472162	-508.1441650390626	1333.240600585938	-4.597157001495424	-571.4486694335939	1030.342041015625	-67.40747070312509	-604.1986083984376	1024.061645507813	6.227357864379811	-607.7270507812501	1025.39404296875	-39.18214416503914	-561.1063842773439	783.2466430664065	-44.2092819213868	-624.1685180664064	807.8272094726565	-84.59470367431649	-578.1724243164064	698.4477539062501	-51.02540206909188	-659.7885742187501	742.6829833984376	-84.88861846923838	-606.7888793945314	1192.857788085938	269.431884765625	-583.7467651367189	1323.028076171875	236.2577209472656	-528.2829589843751	1338.264526367188	339.6047058105469	-472.5242919921877	1338.432250976563	356.159912109375	-434.289276123047	1033.107055664063	429.6698303222657	-474.1316528320314	1002.796020507813	364.7790222167969	-463.4910583496095	992.849548339844	411.6485900878907	-240.9410705566407	876.6611328125002	369.1533508300781	-298.1744079589845	828.0786132812502	394.1103210449219	-180.1918945312501	813.1832275390627	364.7644653320313	-267.261199951172	764.6663208007814	392.0632629394532	
55	0.54	-353.5291137695313	918.1708984375002	82.95206451416013	-547.3538208007814	908.632263183594	121.4256057739257	-550.0695800781251	909.699401855469	237.1202545166016	-365.1453247070314	901.2772216796877	306.9518737792969	-405.2620544433595	840.2807617187502	8.158694267272901	-227.2901611328126	457.811737060547	77.67784118652342	-239.1744232177735	402.8682861328126	73.07154846191405	-180.0840911865235	405.518524169922	130.5341796875	-198.8265380859376	66.62184906005861	92.95401763916014	-244.9781036376954	16.01358222961426	125.1953964233398	-59.01050949096683	28.69895744323731	175.3706665039063	-50.11489105224612	43.99488830566407	124.2902069091797	-88.50608062744143	24.23098754882813	70.76329803466797	-463.104949951172	812.6116333007815	355.7373962402344	-517.5761718750001	428.3382263183595	296.9153137207031	-574.5682373046876	396.582489013672	298.4127502441406	-537.1564941406251	346.0781555175782	254.7587432861328	-838.3162841796877	172.8155975341797	276.4821472167968	-891.6187744140627	181.410140991211	229.2223510742187	-789.5503540039065	34.81782531738282	188.4743499755859	-784.382995605469	41.1127052307129	242.8552093505859	-820.8088989257815	49.32851028442384	289.7872924804687	-523.0648803710939	1395.20751953125	185.7392120361328	-589.3055419921876	1155.525390625	181.511489868164	-364.6332702636719	1098.1953125	171.9476470947265	-399.0089111328126	1313.95263671875	172.914810180664	-591.8562011718751	1190.189331054688	104.6562347412109	-569.4852905273439	1323.132568359375	99.92324829101558	-528.1214599609376	1334.102661132813	16.11782264709467	-489.3453979492189	1334.780029296875	-5.982600688934387	-551.0844726562501	1031.534301757813	-68.58148193359384	-583.7301635742189	1025.162475585938	5.390344142913748	-587.2746582031251	1026.228881835938	-40.28037643432625	-538.5282592773439	784.518493652344	-44.92791366577156	-601.9677124023439	808.3846435546877	-85.31468963623055	-555.3507690429689	699.5263061523439	-50.77501296997079	-637.0945434570314	743.0371093750001	-84.90977478027352	-588.1393432617189	1194.806640625	268.3418273925781	-565.2904052734376	1325.018432617188	234.8089141845703	-509.8493652343752	1340.510986328125	338.2994079589844	-454.0348205566408	1340.502685546875	355.0062255859375	-419.6529235839845	1034.306640625	428.1528015136719	-459.5367126464845	1004.962463378906	363.1476440429688	-449.4297180175783	994.7363281250002	410.1451416015626	-229.1209564208986	874.0607910156252	369.3736877441407	-287.4820251464845	826.8663330078127	394.0417175292969	-169.7074127197266	809.0523071289065	365.4440917968751	-258.0581054687501	762.6783447265626	392.1221313476563	
